<?xml version="1.0" encoding="UTF-8" standalone="no"?>
<svg width="1920px" height="1273px" viewBox="0 0 1920 1273" version="1.1" xmlns="http://www.w3.org/2000/svg" xmlns:xlink="http://www.w3.org/1999/xlink">
    <!-- Generator: Sketch 49.3 (51167) - http://www.bohemiancoding.com/sketch -->
    <title>Group</title>
    <desc>Created with Sketch.</desc>
    <defs></defs>
    <g id="desktop" stroke="none" stroke-width="1" fill="none" fill-rule="evenodd" opacity="0.8">
        <g id="home" transform="translate(0.000000, -3838.000000)">
            <g id="NEWSLETTER" transform="translate(-1200.000000, 3814.000000)">
                <g id="Group" transform="translate(1788.500000, 736.500000) scale(1, -1) translate(-1788.500000, -736.500000) ">
                    <path d="M1164.98771,265.857135 C997.094256,265.857135 861.00027,401.927188 861.00027,569.791119 C860.943236,612.511591 869.926767,654.760777 887.36075,693.763407 L1442.77859,446.206198 C1393.94405,336.502856 1285.08713,265.830107 1164.98771,265.857135 Z" id="Shape" fill="#4F83BC" fill-rule="nonzero"></path>
                    <rect id="Rectangle-path" fill="#4F83BC" fill-rule="nonzero" transform="translate(1789.378910, 310.709742) rotate(-45.000000) translate(-1789.378910, -310.709742) " x="1724.05141" y="245.393733" width="130.654996" height="130.632018"></rect>
                    <rect id="Rectangle-path" stroke="#4475AD" stroke-width="15" fill-rule="nonzero" transform="translate(2707.378910, 786.142317) rotate(-45.000000) translate(-2707.378910, -786.142317) " x="2642.05141" y="720.826308" width="130.654996" height="130.632018"></rect>
                    <rect id="Rectangle-path" fill="#4475AD" fill-rule="nonzero" transform="translate(2130.000000, 1236.693517) rotate(-98.000000) translate(-2130.000000, -1236.693517) " x="2086.3761" y="1092.22702" width="87.247808" height="288.933"></rect>
                    <polygon id="Shape" fill="#4A7DB5" fill-rule="nonzero" transform="translate(1357.975738, 1206.644476) scale(-1, 1) translate(-1357.975738, -1206.644476) " points="964.602574 1113.91275 894 1152.51535 1055.82715 1448.28895 1147.43906 1448.08916 1129.08362 1414.53922 1821.95148 1035.57526 1783.34209 965 1090.45934 1343.94906"></polygon>
                    <polygon id="Rectangle-path" fill="#3C6CA3" fill-rule="nonzero" transform="translate(2909.501297, 1248.539400) rotate(-30.000000) translate(-2909.501297, -1248.539400) " points="2884.93632 1004.08459 2934.11076 1004.08459 2934.22621 1492.99421 2884.77638 1464.44434"></polygon>
                    <ellipse id="Oval" stroke="#4475AD" stroke-width="14.36" cx="1358.1926" cy="836.177794" rx="84.1926009" ry="84.1777944"></ellipse>
                    <ellipse id="Oval" fill="#4A7DB5" cx="2005.82085" cy="723.809452" rx="64.820852" ry="64.8094524"></ellipse>
                    <path d="M2203.65404,261.537134 L2421.21368,175.124531" id="Shape" stroke="#4475AD" stroke-width="11.06"></path>
                    <path d="M2330.31547,325.60165 L2799.70785,142.347337" id="Shape" stroke="#4A7DB5" stroke-width="11.06"></path>
                    <path d="M2136,509.254314 L2605.39238,326" id="Shape" stroke="#4A7DB5" stroke-width="11.06"></path>
                    <path d="M2415.25314,479.058515 L2884.64552,295.804201" id="Shape" stroke="#4A7DB5" stroke-width="11.06"></path>
                    <path d="M2650,534.059265 L3576.86368,175" id="Shape" stroke="#4475AD" stroke-width="51"></path>
                </g>
            </g>
        </g>
    </g>
</svg>