<svg xmlns="http://www.w3.org/2000/svg" xmlns:xlink="http://www.w3.org/1999/xlink" viewBox="0 0 194.42 158.42"><defs><style>.cls-1{fill:#fff;}.cls-2{mask:url(#mask);}.cls-3,.cls-4{fill:none;stroke-width:3px;}.cls-3{stroke:#020202;}.cls-4{stroke:#000;}</style><mask id="mask" x="0" y="0" width="194.42" height="158.42" maskUnits="userSpaceOnUse"><g id="mask-22"><polygon id="path-21" class="cls-1" points="0 0 194.42 0 194.42 158.42 0 158.42 0 0"/></g></mask></defs><title>Fichier 9</title><g id="Calque_2" data-name="Calque 2"><g id="Calque_1-2" data-name="Calque 1"><g id="Group-5"><g id="Group-4-Copy"><g id="Group-Copy-2"><g id="Page-1"><g class="cls-2"><path id="Fill-1" d="M165.47,100.78A78.71,78.71,0,0,0,164,59.66c11.51,0,21.21,7.7,22.24,18.2,1.12,11.29-8.18,21.53-20.78,22.92m-21.17,2.65a31.28,31.28,0,0,1,2.11,11.27c0,21.43-21.89,38.8-48.88,38.8s-48.87-17.37-48.87-38.8a31.6,31.6,0,0,1,2-11,32.29,32.29,0,0,1-14.2-26.93c0-17.7,13.85-32,30.94-32,14.28,0,26.26,10,29.83,23.65C100.78,54.8,112.76,44.77,127,44.77c17.09,0,30.94,14.35,30.94,32a32.36,32.36,0,0,1-13.68,26.61M27.93,83.94a78.31,78.31,0,0,0,1.59,15.74c-11.45-1.2-20.34-9.9-20.34-20.46,0-11.34,10.26-20.54,22.93-20.6a78.21,78.21,0,0,0-4.18,25.32M168.12,50.42a24.05,24.05,0,0,0-7,1.06c-9.53-20.85-28-36.29-50.07-40.82l2.42-4.74L101.2,9.27,107.29,0s-33.63,5.38-55,26.75A74.35,74.35,0,0,0,34,51.67a24.52,24.52,0,0,0-7.68-1.25C11.77,50.42,0,63.24,0,79.05s11.77,28.63,26.3,28.63a24.11,24.11,0,0,0,4.35-.42C39.93,137,66.39,158.42,97.6,158.42s57.6-21.39,66.92-51a23.84,23.84,0,0,0,3.6.3c14.53,0,26.3-12.81,26.3-28.63s-11.77-28.63-26.3-28.63"/></g></g><path id="Path-3" class="cls-3" d="M114,81q14-14,25,0"/><path id="Path-3-2" data-name="Path-3" class="cls-3" d="M54,81q14-14,25,0"/></g></g><path id="Path-2-Copy-2" class="cls-4" d="M75,127.05q22.33,18.09,45.69,0"/></g></g></g></svg>