<?xml version="1.0" encoding="UTF-8"?>
<svg width="640px" height="1280px" viewBox="0 0 640 1280" version="1.1" xmlns="http://www.w3.org/2000/svg" xmlns:xlink="http://www.w3.org/1999/xlink">
    <!-- Generator: Sketch 49.3 (51167) - http://www.bohemiancoding.com/sketch -->
    <title>img 5 - home newletters</title>
    <desc>Created with Sketch.</desc>
    <defs>
        <radialGradient cx="27.5423388%" cy="6.1339715%" fx="27.5423388%" fy="6.1339715%" r="48.0738593%" gradientTransform="translate(0.275423,0.061340),rotate(60.978550),scale(1.000000,1.333800),translate(-0.275423,-0.061340)" id="radialGradient-1">
            <stop stop-color="#679BD7" offset="0%"></stop>
            <stop stop-color="#2B78D0" offset="100%"></stop>
        </radialGradient>
        <linearGradient x1="50%" y1="63.096392%" x2="62.8030049%" y2="89.1554267%" id="linearGradient-2">
            <stop stop-color="#3E5C7F" offset="0%"></stop>
            <stop stop-color="#6396CF" stop-opacity="0" offset="100%"></stop>
        </linearGradient>
        <radialGradient cx="27.5423388%" cy="6.1339715%" fx="27.5423388%" fy="6.1339715%" r="66.6766233%" gradientTransform="translate(0.275423,0.061340),scale(0.920928,1.000000),rotate(-44.663308),scale(1.000000,1.333800),translate(-0.275423,-0.061340)" id="radialGradient-3">
            <stop stop-color="#679BD7" offset="0%"></stop>
            <stop stop-color="#2B78D0" offset="100%"></stop>
        </radialGradient>
        <radialGradient cx="27.5423388%" cy="6.1339715%" fx="27.5423388%" fy="6.1339715%" r="64.0637624%" gradientTransform="translate(0.275423,0.061340),rotate(60.978550),scale(1.000000,1.333800),translate(-0.275423,-0.061340)" id="radialGradient-4">
            <stop stop-color="#679BD7" offset="0%"></stop>
            <stop stop-color="#2B78D0" offset="100%"></stop>
        </radialGradient>
        <linearGradient x1="14.1139209%" y1="36.4627151%" x2="14.1139212%" y2="87.2602429%" id="linearGradient-5">
            <stop stop-color="#FF670F" offset="0%"></stop>
            <stop stop-color="#FFE4B0" stop-opacity="0" offset="100%"></stop>
        </linearGradient>
        <linearGradient x1="35.531109%" y1="85.0352577%" x2="35.5311096%" y2="24.5855839%" id="linearGradient-6">
            <stop stop-color="#FF670F" offset="0%"></stop>
            <stop stop-color="#FFE4B0" stop-opacity="0" offset="100%"></stop>
        </linearGradient>
        <linearGradient x1="50%" y1="29.8209294%" x2="50%" y2="96.4442347%" id="linearGradient-7">
            <stop stop-color="#FFFFFF" offset="0%"></stop>
            <stop stop-color="#FFE4B0" stop-opacity="0" offset="100%"></stop>
        </linearGradient>
        <linearGradient x1="50%" y1="29.8209294%" x2="50%" y2="95.9446218%" id="linearGradient-8">
            <stop stop-color="#FFFFFF" offset="0%"></stop>
            <stop stop-color="#FFE4B0" stop-opacity="0" offset="100%"></stop>
        </linearGradient>
        <linearGradient x1="39.7581408%" y1="61.6428695%" x2="12.3977043%" y2="89.2145924%" id="linearGradient-9">
            <stop stop-color="#FFFFFF" offset="0%"></stop>
            <stop stop-color="#FFE4B0" stop-opacity="0" offset="100%"></stop>
        </linearGradient>
    </defs>
    <g id="img-5---home-newletters" stroke="none" stroke-width="1" fill="none" fill-rule="evenodd">
        <rect id="Rectangle-5" fill="#FFE4B0" x="-72" y="-52" width="901" height="1374"></rect>
        <g id="Group-2-Copy-3" transform="translate(166.000000, 1168.500000) rotate(-270.000000) translate(-166.000000, -1168.500000) translate(-105.500000, 1082.500000)" fill="#D8D8D8" stroke="#979797">
            <g id="Group" style="mix-blend-mode: overlay;">
                <ellipse id="Oval" cx="7.85711902" cy="6.81338994" rx="7.85711902" ry="6.81338994"></ellipse>
                <ellipse id="Oval-Copy-19" cx="7.85711902" cy="59.2240818" rx="7.85711902" ry="6.81338994"></ellipse>
                <ellipse id="Oval-Copy-7" cx="7.85711902" cy="24.6330252" rx="7.85711902" ry="6.81338994"></ellipse>
                <ellipse id="Oval-Copy-20" cx="7.85711902" cy="77.043717" rx="7.85711902" ry="6.81338994"></ellipse>
                <ellipse id="Oval-Copy-18" cx="7.85711902" cy="41.4044465" rx="7.85711902" ry="6.81338994"></ellipse>
                <ellipse id="Oval-Copy-2" cx="30.8240823" cy="6.81338994" rx="7.85711902" ry="6.81338994"></ellipse>
                <ellipse id="Oval-Copy-22" cx="30.8240823" cy="59.2240818" rx="7.85711902" ry="6.81338994"></ellipse>
                <ellipse id="Oval-Copy-8" cx="30.8240823" cy="24.6330252" rx="7.85711902" ry="6.81338994"></ellipse>
                <ellipse id="Oval-Copy-23" cx="30.8240823" cy="77.043717" rx="7.85711902" ry="6.81338994"></ellipse>
                <ellipse id="Oval-Copy-13" cx="30.8240823" cy="41.4044465" rx="7.85711902" ry="6.81338994"></ellipse>
                <ellipse id="Oval-Copy-3" cx="53.7910456" cy="6.81338994" rx="7.85711902" ry="6.81338994"></ellipse>
                <ellipse id="Oval-Copy-25" cx="53.7910456" cy="59.2240818" rx="7.85711902" ry="6.81338994"></ellipse>
                <ellipse id="Oval-Copy-9" cx="53.7910456" cy="24.6330252" rx="7.85711902" ry="6.81338994"></ellipse>
                <ellipse id="Oval-Copy-26" cx="53.7910456" cy="77.043717" rx="7.85711902" ry="6.81338994"></ellipse>
                <ellipse id="Oval-Copy-14" cx="53.7910456" cy="41.4044465" rx="7.85711902" ry="6.81338994"></ellipse>
                <ellipse id="Oval-Copy-4" cx="76.7580088" cy="6.81338994" rx="7.85711902" ry="6.81338994"></ellipse>
                <ellipse id="Oval-Copy-28" cx="76.7580088" cy="59.2240818" rx="7.85711902" ry="6.81338994"></ellipse>
                <ellipse id="Oval-Copy-10" cx="76.7580088" cy="24.6330252" rx="7.85711902" ry="6.81338994"></ellipse>
                <ellipse id="Oval-Copy-29" cx="76.7580088" cy="77.043717" rx="7.85711902" ry="6.81338994"></ellipse>
                <ellipse id="Oval-Copy-15" cx="76.7580088" cy="41.4044465" rx="7.85711902" ry="6.81338994"></ellipse>
                <ellipse id="Oval-Copy-5" cx="99.7249721" cy="6.81338994" rx="7.85711902" ry="6.81338994"></ellipse>
                <ellipse id="Oval-Copy-31" cx="99.7249721" cy="59.2240818" rx="7.85711902" ry="6.81338994"></ellipse>
                <ellipse id="Oval-Copy-11" cx="99.7249721" cy="24.6330252" rx="7.85711902" ry="6.81338994"></ellipse>
                <ellipse id="Oval-Copy-32" cx="99.7249721" cy="77.043717" rx="7.85711902" ry="6.81338994"></ellipse>
                <ellipse id="Oval-Copy-16" cx="99.7249721" cy="41.4044465" rx="7.85711902" ry="6.81338994"></ellipse>
                <ellipse id="Oval-Copy-6" cx="122.691935" cy="6.81338994" rx="7.85711902" ry="6.81338994"></ellipse>
                <ellipse id="Oval-Copy-34" cx="122.691935" cy="59.2240818" rx="7.85711902" ry="6.81338994"></ellipse>
                <ellipse id="Oval-Copy-12" cx="122.691935" cy="24.6330252" rx="7.85711902" ry="6.81338994"></ellipse>
                <ellipse id="Oval-Copy-35" cx="122.691935" cy="77.043717" rx="7.85711902" ry="6.81338994"></ellipse>
                <ellipse id="Oval-Copy-17" cx="122.691935" cy="41.4044465" rx="7.85711902" ry="6.81338994"></ellipse>
            </g>
            <g id="Group-Copy-2" style="mix-blend-mode: overlay;" transform="translate(274.965957, 0.000000)">
                <ellipse id="Oval" cx="7.85711902" cy="6.81338994" rx="7.85711902" ry="6.81338994"></ellipse>
                <ellipse id="Oval-Copy-19" cx="7.85711902" cy="59.2240818" rx="7.85711902" ry="6.81338994"></ellipse>
                <ellipse id="Oval-Copy-7" cx="7.85711902" cy="24.6330252" rx="7.85711902" ry="6.81338994"></ellipse>
                <ellipse id="Oval-Copy-20" cx="7.85711902" cy="77.043717" rx="7.85711902" ry="6.81338994"></ellipse>
                <ellipse id="Oval-Copy-18" cx="7.85711902" cy="41.4044465" rx="7.85711902" ry="6.81338994"></ellipse>
                <ellipse id="Oval-Copy-2" cx="30.8240823" cy="6.81338994" rx="7.85711902" ry="6.81338994"></ellipse>
                <ellipse id="Oval-Copy-22" cx="30.8240823" cy="59.2240818" rx="7.85711902" ry="6.81338994"></ellipse>
                <ellipse id="Oval-Copy-8" cx="30.8240823" cy="24.6330252" rx="7.85711902" ry="6.81338994"></ellipse>
                <ellipse id="Oval-Copy-23" cx="30.8240823" cy="77.043717" rx="7.85711902" ry="6.81338994"></ellipse>
                <ellipse id="Oval-Copy-13" cx="30.8240823" cy="41.4044465" rx="7.85711902" ry="6.81338994"></ellipse>
                <ellipse id="Oval-Copy-3" cx="53.7910456" cy="6.81338994" rx="7.85711902" ry="6.81338994"></ellipse>
                <ellipse id="Oval-Copy-25" cx="53.7910456" cy="59.2240818" rx="7.85711902" ry="6.81338994"></ellipse>
                <ellipse id="Oval-Copy-9" cx="53.7910456" cy="24.6330252" rx="7.85711902" ry="6.81338994"></ellipse>
                <ellipse id="Oval-Copy-26" cx="53.7910456" cy="77.043717" rx="7.85711902" ry="6.81338994"></ellipse>
                <ellipse id="Oval-Copy-14" cx="53.7910456" cy="41.4044465" rx="7.85711902" ry="6.81338994"></ellipse>
                <ellipse id="Oval-Copy-4" cx="76.7580088" cy="6.81338994" rx="7.85711902" ry="6.81338994"></ellipse>
                <ellipse id="Oval-Copy-28" cx="76.7580088" cy="59.2240818" rx="7.85711902" ry="6.81338994"></ellipse>
                <ellipse id="Oval-Copy-10" cx="76.7580088" cy="24.6330252" rx="7.85711902" ry="6.81338994"></ellipse>
                <ellipse id="Oval-Copy-29" cx="76.7580088" cy="77.043717" rx="7.85711902" ry="6.81338994"></ellipse>
                <ellipse id="Oval-Copy-15" cx="76.7580088" cy="41.4044465" rx="7.85711902" ry="6.81338994"></ellipse>
                <ellipse id="Oval-Copy-5" cx="99.7249721" cy="6.81338994" rx="7.85711902" ry="6.81338994"></ellipse>
                <ellipse id="Oval-Copy-31" cx="99.7249721" cy="59.2240818" rx="7.85711902" ry="6.81338994"></ellipse>
                <ellipse id="Oval-Copy-11" cx="99.7249721" cy="24.6330252" rx="7.85711902" ry="6.81338994"></ellipse>
                <ellipse id="Oval-Copy-32" cx="99.7249721" cy="77.043717" rx="7.85711902" ry="6.81338994"></ellipse>
                <ellipse id="Oval-Copy-16" cx="99.7249721" cy="41.4044465" rx="7.85711902" ry="6.81338994"></ellipse>
            </g>
            <g id="Group-Copy-4" style="mix-blend-mode: overlay;" transform="translate(0.000000, 88.000000)">
                <ellipse id="Oval" cx="7.85711902" cy="6.81338994" rx="7.85711902" ry="6.81338994"></ellipse>
                <ellipse id="Oval-Copy-19" cx="7.85711902" cy="59.2240818" rx="7.85711902" ry="6.81338994"></ellipse>
                <ellipse id="Oval-Copy-7" cx="7.85711902" cy="24.6330252" rx="7.85711902" ry="6.81338994"></ellipse>
                <ellipse id="Oval-Copy-20" cx="7.85711902" cy="77.043717" rx="7.85711902" ry="6.81338994"></ellipse>
                <ellipse id="Oval-Copy-18" cx="7.85711902" cy="41.4044465" rx="7.85711902" ry="6.81338994"></ellipse>
                <ellipse id="Oval-Copy-2" cx="30.8240823" cy="6.81338994" rx="7.85711902" ry="6.81338994"></ellipse>
                <ellipse id="Oval-Copy-22" cx="30.8240823" cy="59.2240818" rx="7.85711902" ry="6.81338994"></ellipse>
                <ellipse id="Oval-Copy-8" cx="30.8240823" cy="24.6330252" rx="7.85711902" ry="6.81338994"></ellipse>
                <ellipse id="Oval-Copy-23" cx="30.8240823" cy="77.043717" rx="7.85711902" ry="6.81338994"></ellipse>
                <ellipse id="Oval-Copy-13" cx="30.8240823" cy="41.4044465" rx="7.85711902" ry="6.81338994"></ellipse>
                <ellipse id="Oval-Copy-3" cx="53.7910456" cy="6.81338994" rx="7.85711902" ry="6.81338994"></ellipse>
                <ellipse id="Oval-Copy-25" cx="53.7910456" cy="59.2240818" rx="7.85711902" ry="6.81338994"></ellipse>
                <ellipse id="Oval-Copy-9" cx="53.7910456" cy="24.6330252" rx="7.85711902" ry="6.81338994"></ellipse>
                <ellipse id="Oval-Copy-26" cx="53.7910456" cy="77.043717" rx="7.85711902" ry="6.81338994"></ellipse>
                <ellipse id="Oval-Copy-14" cx="53.7910456" cy="41.4044465" rx="7.85711902" ry="6.81338994"></ellipse>
                <ellipse id="Oval-Copy-4" cx="76.7580088" cy="6.81338994" rx="7.85711902" ry="6.81338994"></ellipse>
                <ellipse id="Oval-Copy-28" cx="76.7580088" cy="59.2240818" rx="7.85711902" ry="6.81338994"></ellipse>
                <ellipse id="Oval-Copy-10" cx="76.7580088" cy="24.6330252" rx="7.85711902" ry="6.81338994"></ellipse>
                <ellipse id="Oval-Copy-29" cx="76.7580088" cy="77.043717" rx="7.85711902" ry="6.81338994"></ellipse>
                <ellipse id="Oval-Copy-15" cx="76.7580088" cy="41.4044465" rx="7.85711902" ry="6.81338994"></ellipse>
                <ellipse id="Oval-Copy-5" cx="99.7249721" cy="6.81338994" rx="7.85711902" ry="6.81338994"></ellipse>
                <ellipse id="Oval-Copy-31" cx="99.7249721" cy="59.2240818" rx="7.85711902" ry="6.81338994"></ellipse>
                <ellipse id="Oval-Copy-11" cx="99.7249721" cy="24.6330252" rx="7.85711902" ry="6.81338994"></ellipse>
                <ellipse id="Oval-Copy-32" cx="99.7249721" cy="77.043717" rx="7.85711902" ry="6.81338994"></ellipse>
                <ellipse id="Oval-Copy-16" cx="99.7249721" cy="41.4044465" rx="7.85711902" ry="6.81338994"></ellipse>
                <ellipse id="Oval-Copy-6" cx="122.691935" cy="6.81338994" rx="7.85711902" ry="6.81338994"></ellipse>
                <ellipse id="Oval-Copy-34" cx="122.691935" cy="59.2240818" rx="7.85711902" ry="6.81338994"></ellipse>
                <ellipse id="Oval-Copy-12" cx="122.691935" cy="24.6330252" rx="7.85711902" ry="6.81338994"></ellipse>
                <ellipse id="Oval-Copy-35" cx="122.691935" cy="77.043717" rx="7.85711902" ry="6.81338994"></ellipse>
                <ellipse id="Oval-Copy-17" cx="122.691935" cy="41.4044465" rx="7.85711902" ry="6.81338994"></ellipse>
            </g>
            <g id="Group-Copy-6" style="mix-blend-mode: overlay;" transform="translate(274.965957, 88.000000)">
                <ellipse id="Oval" cx="7.85711902" cy="6.81338994" rx="7.85711902" ry="6.81338994"></ellipse>
                <ellipse id="Oval-Copy-19" cx="7.85711902" cy="59.2240818" rx="7.85711902" ry="6.81338994"></ellipse>
                <ellipse id="Oval-Copy-7" cx="7.85711902" cy="24.6330252" rx="7.85711902" ry="6.81338994"></ellipse>
                <ellipse id="Oval-Copy-20" cx="7.85711902" cy="77.043717" rx="7.85711902" ry="6.81338994"></ellipse>
                <ellipse id="Oval-Copy-18" cx="7.85711902" cy="41.4044465" rx="7.85711902" ry="6.81338994"></ellipse>
                <ellipse id="Oval-Copy-2" cx="30.8240823" cy="6.81338994" rx="7.85711902" ry="6.81338994"></ellipse>
                <ellipse id="Oval-Copy-22" cx="30.8240823" cy="59.2240818" rx="7.85711902" ry="6.81338994"></ellipse>
                <ellipse id="Oval-Copy-8" cx="30.8240823" cy="24.6330252" rx="7.85711902" ry="6.81338994"></ellipse>
                <ellipse id="Oval-Copy-23" cx="30.8240823" cy="77.043717" rx="7.85711902" ry="6.81338994"></ellipse>
                <ellipse id="Oval-Copy-13" cx="30.8240823" cy="41.4044465" rx="7.85711902" ry="6.81338994"></ellipse>
                <ellipse id="Oval-Copy-3" cx="53.7910456" cy="6.81338994" rx="7.85711902" ry="6.81338994"></ellipse>
                <ellipse id="Oval-Copy-25" cx="53.7910456" cy="59.2240818" rx="7.85711902" ry="6.81338994"></ellipse>
                <ellipse id="Oval-Copy-9" cx="53.7910456" cy="24.6330252" rx="7.85711902" ry="6.81338994"></ellipse>
                <ellipse id="Oval-Copy-26" cx="53.7910456" cy="77.043717" rx="7.85711902" ry="6.81338994"></ellipse>
                <ellipse id="Oval-Copy-14" cx="53.7910456" cy="41.4044465" rx="7.85711902" ry="6.81338994"></ellipse>
                <ellipse id="Oval-Copy-4" cx="76.7580088" cy="6.81338994" rx="7.85711902" ry="6.81338994"></ellipse>
                <ellipse id="Oval-Copy-28" cx="76.7580088" cy="59.2240818" rx="7.85711902" ry="6.81338994"></ellipse>
                <ellipse id="Oval-Copy-10" cx="76.7580088" cy="24.6330252" rx="7.85711902" ry="6.81338994"></ellipse>
                <ellipse id="Oval-Copy-29" cx="76.7580088" cy="77.043717" rx="7.85711902" ry="6.81338994"></ellipse>
                <ellipse id="Oval-Copy-15" cx="76.7580088" cy="41.4044465" rx="7.85711902" ry="6.81338994"></ellipse>
                <ellipse id="Oval-Copy-5" cx="99.7249721" cy="6.81338994" rx="7.85711902" ry="6.81338994"></ellipse>
                <ellipse id="Oval-Copy-31" cx="99.7249721" cy="59.2240818" rx="7.85711902" ry="6.81338994"></ellipse>
                <ellipse id="Oval-Copy-11" cx="99.7249721" cy="24.6330252" rx="7.85711902" ry="6.81338994"></ellipse>
                <ellipse id="Oval-Copy-32" cx="99.7249721" cy="77.043717" rx="7.85711902" ry="6.81338994"></ellipse>
                <ellipse id="Oval-Copy-16" cx="99.7249721" cy="41.4044465" rx="7.85711902" ry="6.81338994"></ellipse>
            </g>
            <g id="Group-Copy" style="mix-blend-mode: overlay;" transform="translate(136.327660, 0.000000)">
                <ellipse id="Oval" cx="7.85711902" cy="6.81338994" rx="7.85711902" ry="6.81338994"></ellipse>
                <ellipse id="Oval-Copy-19" cx="7.85711902" cy="59.2240818" rx="7.85711902" ry="6.81338994"></ellipse>
                <ellipse id="Oval-Copy-7" cx="7.85711902" cy="24.6330252" rx="7.85711902" ry="6.81338994"></ellipse>
                <ellipse id="Oval-Copy-20" cx="7.85711902" cy="77.043717" rx="7.85711902" ry="6.81338994"></ellipse>
                <ellipse id="Oval-Copy-18" cx="7.85711902" cy="41.4044465" rx="7.85711902" ry="6.81338994"></ellipse>
                <ellipse id="Oval-Copy-2" cx="30.8240823" cy="6.81338994" rx="7.85711902" ry="6.81338994"></ellipse>
                <ellipse id="Oval-Copy-22" cx="30.8240823" cy="59.2240818" rx="7.85711902" ry="6.81338994"></ellipse>
                <ellipse id="Oval-Copy-8" cx="30.8240823" cy="24.6330252" rx="7.85711902" ry="6.81338994"></ellipse>
                <ellipse id="Oval-Copy-23" cx="30.8240823" cy="77.043717" rx="7.85711902" ry="6.81338994"></ellipse>
                <ellipse id="Oval-Copy-13" cx="30.8240823" cy="41.4044465" rx="7.85711902" ry="6.81338994"></ellipse>
                <ellipse id="Oval-Copy-3" cx="53.7910456" cy="6.81338994" rx="7.85711902" ry="6.81338994"></ellipse>
                <ellipse id="Oval-Copy-25" cx="53.7910456" cy="59.2240818" rx="7.85711902" ry="6.81338994"></ellipse>
                <ellipse id="Oval-Copy-9" cx="53.7910456" cy="24.6330252" rx="7.85711902" ry="6.81338994"></ellipse>
                <ellipse id="Oval-Copy-26" cx="53.7910456" cy="77.043717" rx="7.85711902" ry="6.81338994"></ellipse>
                <ellipse id="Oval-Copy-14" cx="53.7910456" cy="41.4044465" rx="7.85711902" ry="6.81338994"></ellipse>
                <ellipse id="Oval-Copy-4" cx="76.7580088" cy="6.81338994" rx="7.85711902" ry="6.81338994"></ellipse>
                <ellipse id="Oval-Copy-28" cx="76.7580088" cy="59.2240818" rx="7.85711902" ry="6.81338994"></ellipse>
                <ellipse id="Oval-Copy-10" cx="76.7580088" cy="24.6330252" rx="7.85711902" ry="6.81338994"></ellipse>
                <ellipse id="Oval-Copy-29" cx="76.7580088" cy="77.043717" rx="7.85711902" ry="6.81338994"></ellipse>
                <ellipse id="Oval-Copy-15" cx="76.7580088" cy="41.4044465" rx="7.85711902" ry="6.81338994"></ellipse>
                <ellipse id="Oval-Copy-5" cx="99.7249721" cy="6.81338994" rx="7.85711902" ry="6.81338994"></ellipse>
                <ellipse id="Oval-Copy-31" cx="99.7249721" cy="59.2240818" rx="7.85711902" ry="6.81338994"></ellipse>
                <ellipse id="Oval-Copy-11" cx="99.7249721" cy="24.6330252" rx="7.85711902" ry="6.81338994"></ellipse>
                <ellipse id="Oval-Copy-32" cx="99.7249721" cy="77.043717" rx="7.85711902" ry="6.81338994"></ellipse>
                <ellipse id="Oval-Copy-16" cx="99.7249721" cy="41.4044465" rx="7.85711902" ry="6.81338994"></ellipse>
                <ellipse id="Oval-Copy-6" cx="122.691935" cy="6.81338994" rx="7.85711902" ry="6.81338994"></ellipse>
                <ellipse id="Oval-Copy-34" cx="122.691935" cy="59.2240818" rx="7.85711902" ry="6.81338994"></ellipse>
                <ellipse id="Oval-Copy-12" cx="122.691935" cy="24.6330252" rx="7.85711902" ry="6.81338994"></ellipse>
                <ellipse id="Oval-Copy-35" cx="122.691935" cy="77.043717" rx="7.85711902" ry="6.81338994"></ellipse>
                <ellipse id="Oval-Copy-17" cx="122.691935" cy="41.4044465" rx="7.85711902" ry="6.81338994"></ellipse>
            </g>
            <g id="Group-Copy-5" style="mix-blend-mode: overlay;" transform="translate(136.327660, 88.000000)">
                <ellipse id="Oval" cx="7.85711902" cy="6.81338994" rx="7.85711902" ry="6.81338994"></ellipse>
                <ellipse id="Oval-Copy-19" cx="7.85711902" cy="59.2240818" rx="7.85711902" ry="6.81338994"></ellipse>
                <ellipse id="Oval-Copy-7" cx="7.85711902" cy="24.6330252" rx="7.85711902" ry="6.81338994"></ellipse>
                <ellipse id="Oval-Copy-20" cx="7.85711902" cy="77.043717" rx="7.85711902" ry="6.81338994"></ellipse>
                <ellipse id="Oval-Copy-18" cx="7.85711902" cy="41.4044465" rx="7.85711902" ry="6.81338994"></ellipse>
                <ellipse id="Oval-Copy-2" cx="30.8240823" cy="6.81338994" rx="7.85711902" ry="6.81338994"></ellipse>
                <ellipse id="Oval-Copy-22" cx="30.8240823" cy="59.2240818" rx="7.85711902" ry="6.81338994"></ellipse>
                <ellipse id="Oval-Copy-8" cx="30.8240823" cy="24.6330252" rx="7.85711902" ry="6.81338994"></ellipse>
                <ellipse id="Oval-Copy-23" cx="30.8240823" cy="77.043717" rx="7.85711902" ry="6.81338994"></ellipse>
                <ellipse id="Oval-Copy-13" cx="30.8240823" cy="41.4044465" rx="7.85711902" ry="6.81338994"></ellipse>
                <ellipse id="Oval-Copy-3" cx="53.7910456" cy="6.81338994" rx="7.85711902" ry="6.81338994"></ellipse>
                <ellipse id="Oval-Copy-25" cx="53.7910456" cy="59.2240818" rx="7.85711902" ry="6.81338994"></ellipse>
                <ellipse id="Oval-Copy-9" cx="53.7910456" cy="24.6330252" rx="7.85711902" ry="6.81338994"></ellipse>
                <ellipse id="Oval-Copy-26" cx="53.7910456" cy="77.043717" rx="7.85711902" ry="6.81338994"></ellipse>
                <ellipse id="Oval-Copy-14" cx="53.7910456" cy="41.4044465" rx="7.85711902" ry="6.81338994"></ellipse>
                <ellipse id="Oval-Copy-4" cx="76.7580088" cy="6.81338994" rx="7.85711902" ry="6.81338994"></ellipse>
                <ellipse id="Oval-Copy-28" cx="76.7580088" cy="59.2240818" rx="7.85711902" ry="6.81338994"></ellipse>
                <ellipse id="Oval-Copy-10" cx="76.7580088" cy="24.6330252" rx="7.85711902" ry="6.81338994"></ellipse>
                <ellipse id="Oval-Copy-29" cx="76.7580088" cy="77.043717" rx="7.85711902" ry="6.81338994"></ellipse>
                <ellipse id="Oval-Copy-15" cx="76.7580088" cy="41.4044465" rx="7.85711902" ry="6.81338994"></ellipse>
                <ellipse id="Oval-Copy-5" cx="99.7249721" cy="6.81338994" rx="7.85711902" ry="6.81338994"></ellipse>
                <ellipse id="Oval-Copy-31" cx="99.7249721" cy="59.2240818" rx="7.85711902" ry="6.81338994"></ellipse>
                <ellipse id="Oval-Copy-11" cx="99.7249721" cy="24.6330252" rx="7.85711902" ry="6.81338994"></ellipse>
                <ellipse id="Oval-Copy-32" cx="99.7249721" cy="77.043717" rx="7.85711902" ry="6.81338994"></ellipse>
                <ellipse id="Oval-Copy-16" cx="99.7249721" cy="41.4044465" rx="7.85711902" ry="6.81338994"></ellipse>
                <ellipse id="Oval-Copy-6" cx="122.691935" cy="6.81338994" rx="7.85711902" ry="6.81338994"></ellipse>
                <ellipse id="Oval-Copy-34" cx="122.691935" cy="59.2240818" rx="7.85711902" ry="6.81338994"></ellipse>
                <ellipse id="Oval-Copy-12" cx="122.691935" cy="24.6330252" rx="7.85711902" ry="6.81338994"></ellipse>
                <ellipse id="Oval-Copy-35" cx="122.691935" cy="77.043717" rx="7.85711902" ry="6.81338994"></ellipse>
                <ellipse id="Oval-Copy-17" cx="122.691935" cy="41.4044465" rx="7.85711902" ry="6.81338994"></ellipse>
            </g>
        </g>
        <g id="Group-2-Copy-4" transform="translate(642.000000, 184.500000) rotate(-270.000000) translate(-642.000000, -184.500000) translate(370.500000, 98.500000)" fill="#D8D8D8" stroke="#979797">
            <g id="Group-Copy-4" style="mix-blend-mode: overlay;" transform="translate(0.000000, 88.000000)">
                <ellipse id="Oval-Copy-5" cx="99.7249721" cy="6.81338994" rx="7.85711902" ry="6.81338994"></ellipse>
                <ellipse id="Oval-Copy-31" cx="99.7249721" cy="59.2240818" rx="7.85711902" ry="6.81338994"></ellipse>
                <ellipse id="Oval-Copy-11" cx="99.7249721" cy="24.6330252" rx="7.85711902" ry="6.81338994"></ellipse>
                <ellipse id="Oval-Copy-32" cx="99.7249721" cy="77.043717" rx="7.85711902" ry="6.81338994"></ellipse>
                <ellipse id="Oval-Copy-16" cx="99.7249721" cy="41.4044465" rx="7.85711902" ry="6.81338994"></ellipse>
                <ellipse id="Oval-Copy-6" cx="122.691935" cy="6.81338994" rx="7.85711902" ry="6.81338994"></ellipse>
                <ellipse id="Oval-Copy-34" cx="122.691935" cy="59.2240818" rx="7.85711902" ry="6.81338994"></ellipse>
                <ellipse id="Oval-Copy-12" cx="122.691935" cy="24.6330252" rx="7.85711902" ry="6.81338994"></ellipse>
                <ellipse id="Oval-Copy-35" cx="122.691935" cy="77.043717" rx="7.85711902" ry="6.81338994"></ellipse>
                <ellipse id="Oval-Copy-17" cx="122.691935" cy="41.4044465" rx="7.85711902" ry="6.81338994"></ellipse>
            </g>
            <g id="Group-Copy-6" style="mix-blend-mode: overlay;" transform="translate(274.965957, 88.000000)">
                <ellipse id="Oval" cx="7.85711902" cy="6.81338994" rx="7.85711902" ry="6.81338994"></ellipse>
                <ellipse id="Oval-Copy-19" cx="7.85711902" cy="59.2240818" rx="7.85711902" ry="6.81338994"></ellipse>
                <ellipse id="Oval-Copy-7" cx="7.85711902" cy="24.6330252" rx="7.85711902" ry="6.81338994"></ellipse>
                <ellipse id="Oval-Copy-20" cx="7.85711902" cy="77.043717" rx="7.85711902" ry="6.81338994"></ellipse>
                <ellipse id="Oval-Copy-18" cx="7.85711902" cy="41.4044465" rx="7.85711902" ry="6.81338994"></ellipse>
                <ellipse id="Oval-Copy-2" cx="30.8240823" cy="6.81338994" rx="7.85711902" ry="6.81338994"></ellipse>
                <ellipse id="Oval-Copy-22" cx="30.8240823" cy="59.2240818" rx="7.85711902" ry="6.81338994"></ellipse>
                <ellipse id="Oval-Copy-8" cx="30.8240823" cy="24.6330252" rx="7.85711902" ry="6.81338994"></ellipse>
                <ellipse id="Oval-Copy-23" cx="30.8240823" cy="77.043717" rx="7.85711902" ry="6.81338994"></ellipse>
                <ellipse id="Oval-Copy-13" cx="30.8240823" cy="41.4044465" rx="7.85711902" ry="6.81338994"></ellipse>
                <ellipse id="Oval-Copy-3" cx="53.7910456" cy="6.81338994" rx="7.85711902" ry="6.81338994"></ellipse>
                <ellipse id="Oval-Copy-25" cx="53.7910456" cy="59.2240818" rx="7.85711902" ry="6.81338994"></ellipse>
                <ellipse id="Oval-Copy-9" cx="53.7910456" cy="24.6330252" rx="7.85711902" ry="6.81338994"></ellipse>
                <ellipse id="Oval-Copy-26" cx="53.7910456" cy="77.043717" rx="7.85711902" ry="6.81338994"></ellipse>
                <ellipse id="Oval-Copy-14" cx="53.7910456" cy="41.4044465" rx="7.85711902" ry="6.81338994"></ellipse>
                <ellipse id="Oval-Copy-4" cx="76.7580088" cy="6.81338994" rx="7.85711902" ry="6.81338994"></ellipse>
                <ellipse id="Oval-Copy-28" cx="76.7580088" cy="59.2240818" rx="7.85711902" ry="6.81338994"></ellipse>
                <ellipse id="Oval-Copy-10" cx="76.7580088" cy="24.6330252" rx="7.85711902" ry="6.81338994"></ellipse>
                <ellipse id="Oval-Copy-29" cx="76.7580088" cy="77.043717" rx="7.85711902" ry="6.81338994"></ellipse>
                <ellipse id="Oval-Copy-15" cx="76.7580088" cy="41.4044465" rx="7.85711902" ry="6.81338994"></ellipse>
                <ellipse id="Oval-Copy-5" cx="99.7249721" cy="6.81338994" rx="7.85711902" ry="6.81338994"></ellipse>
                <ellipse id="Oval-Copy-31" cx="99.7249721" cy="59.2240818" rx="7.85711902" ry="6.81338994"></ellipse>
                <ellipse id="Oval-Copy-11" cx="99.7249721" cy="24.6330252" rx="7.85711902" ry="6.81338994"></ellipse>
                <ellipse id="Oval-Copy-32" cx="99.7249721" cy="77.043717" rx="7.85711902" ry="6.81338994"></ellipse>
                <ellipse id="Oval-Copy-16" cx="99.7249721" cy="41.4044465" rx="7.85711902" ry="6.81338994"></ellipse>
                <ellipse id="Oval-Copy-6" cx="122.691935" cy="6.81338994" rx="7.85711902" ry="6.81338994"></ellipse>
                <ellipse id="Oval-Copy-34" cx="122.691935" cy="59.2240818" rx="7.85711902" ry="6.81338994"></ellipse>
                <ellipse id="Oval-Copy-12" cx="122.691935" cy="24.6330252" rx="7.85711902" ry="6.81338994"></ellipse>
                <ellipse id="Oval-Copy-35" cx="122.691935" cy="77.043717" rx="7.85711902" ry="6.81338994"></ellipse>
                <ellipse id="Oval-Copy-17" cx="122.691935" cy="41.4044465" rx="7.85711902" ry="6.81338994"></ellipse>
            </g>
            <g id="Group-Copy-5" style="mix-blend-mode: overlay;" transform="translate(136.327660, 88.000000)">
                <ellipse id="Oval" cx="7.85711902" cy="6.81338994" rx="7.85711902" ry="6.81338994"></ellipse>
                <ellipse id="Oval-Copy-19" cx="7.85711902" cy="59.2240818" rx="7.85711902" ry="6.81338994"></ellipse>
                <ellipse id="Oval-Copy-7" cx="7.85711902" cy="24.6330252" rx="7.85711902" ry="6.81338994"></ellipse>
                <ellipse id="Oval-Copy-20" cx="7.85711902" cy="77.043717" rx="7.85711902" ry="6.81338994"></ellipse>
                <ellipse id="Oval-Copy-18" cx="7.85711902" cy="41.4044465" rx="7.85711902" ry="6.81338994"></ellipse>
                <ellipse id="Oval-Copy-2" cx="30.8240823" cy="6.81338994" rx="7.85711902" ry="6.81338994"></ellipse>
                <ellipse id="Oval-Copy-22" cx="30.8240823" cy="59.2240818" rx="7.85711902" ry="6.81338994"></ellipse>
                <ellipse id="Oval-Copy-8" cx="30.8240823" cy="24.6330252" rx="7.85711902" ry="6.81338994"></ellipse>
                <ellipse id="Oval-Copy-23" cx="30.8240823" cy="77.043717" rx="7.85711902" ry="6.81338994"></ellipse>
                <ellipse id="Oval-Copy-13" cx="30.8240823" cy="41.4044465" rx="7.85711902" ry="6.81338994"></ellipse>
                <ellipse id="Oval-Copy-3" cx="53.7910456" cy="6.81338994" rx="7.85711902" ry="6.81338994"></ellipse>
                <ellipse id="Oval-Copy-25" cx="53.7910456" cy="59.2240818" rx="7.85711902" ry="6.81338994"></ellipse>
                <ellipse id="Oval-Copy-9" cx="53.7910456" cy="24.6330252" rx="7.85711902" ry="6.81338994"></ellipse>
                <ellipse id="Oval-Copy-26" cx="53.7910456" cy="77.043717" rx="7.85711902" ry="6.81338994"></ellipse>
                <ellipse id="Oval-Copy-14" cx="53.7910456" cy="41.4044465" rx="7.85711902" ry="6.81338994"></ellipse>
                <ellipse id="Oval-Copy-4" cx="76.7580088" cy="6.81338994" rx="7.85711902" ry="6.81338994"></ellipse>
                <ellipse id="Oval-Copy-28" cx="76.7580088" cy="59.2240818" rx="7.85711902" ry="6.81338994"></ellipse>
                <ellipse id="Oval-Copy-10" cx="76.7580088" cy="24.6330252" rx="7.85711902" ry="6.81338994"></ellipse>
                <ellipse id="Oval-Copy-29" cx="76.7580088" cy="77.043717" rx="7.85711902" ry="6.81338994"></ellipse>
                <ellipse id="Oval-Copy-15" cx="76.7580088" cy="41.4044465" rx="7.85711902" ry="6.81338994"></ellipse>
                <ellipse id="Oval-Copy-5" cx="99.7249721" cy="6.81338994" rx="7.85711902" ry="6.81338994"></ellipse>
                <ellipse id="Oval-Copy-31" cx="99.7249721" cy="59.2240818" rx="7.85711902" ry="6.81338994"></ellipse>
                <ellipse id="Oval-Copy-11" cx="99.7249721" cy="24.6330252" rx="7.85711902" ry="6.81338994"></ellipse>
                <ellipse id="Oval-Copy-32" cx="99.7249721" cy="77.043717" rx="7.85711902" ry="6.81338994"></ellipse>
                <ellipse id="Oval-Copy-16" cx="99.7249721" cy="41.4044465" rx="7.85711902" ry="6.81338994"></ellipse>
                <ellipse id="Oval-Copy-6" cx="122.691935" cy="6.81338994" rx="7.85711902" ry="6.81338994"></ellipse>
                <ellipse id="Oval-Copy-34" cx="122.691935" cy="59.2240818" rx="7.85711902" ry="6.81338994"></ellipse>
                <ellipse id="Oval-Copy-12" cx="122.691935" cy="24.6330252" rx="7.85711902" ry="6.81338994"></ellipse>
                <ellipse id="Oval-Copy-35" cx="122.691935" cy="77.043717" rx="7.85711902" ry="6.81338994"></ellipse>
                <ellipse id="Oval-Copy-17" cx="122.691935" cy="41.4044465" rx="7.85711902" ry="6.81338994"></ellipse>
            </g>
            <g id="Group-Copy-7" style="mix-blend-mode: overlay;" transform="translate(412.448936, 88.000000)">
                <ellipse id="Oval" cx="7.85711902" cy="6.81338994" rx="7.85711902" ry="6.81338994"></ellipse>
                <ellipse id="Oval-Copy-19" cx="7.85711902" cy="59.2240818" rx="7.85711902" ry="6.81338994"></ellipse>
                <ellipse id="Oval-Copy-7" cx="7.85711902" cy="24.6330252" rx="7.85711902" ry="6.81338994"></ellipse>
                <ellipse id="Oval-Copy-20" cx="7.85711902" cy="77.043717" rx="7.85711902" ry="6.81338994"></ellipse>
                <ellipse id="Oval-Copy-18" cx="7.85711902" cy="41.4044465" rx="7.85711902" ry="6.81338994"></ellipse>
                <ellipse id="Oval-Copy-2" cx="30.8240823" cy="6.81338994" rx="7.85711902" ry="6.81338994"></ellipse>
                <ellipse id="Oval-Copy-22" cx="30.8240823" cy="59.2240818" rx="7.85711902" ry="6.81338994"></ellipse>
                <ellipse id="Oval-Copy-8" cx="30.8240823" cy="24.6330252" rx="7.85711902" ry="6.81338994"></ellipse>
                <ellipse id="Oval-Copy-23" cx="30.8240823" cy="77.043717" rx="7.85711902" ry="6.81338994"></ellipse>
                <ellipse id="Oval-Copy-13" cx="30.8240823" cy="41.4044465" rx="7.85711902" ry="6.81338994"></ellipse>
                <ellipse id="Oval-Copy-3" cx="53.7910456" cy="6.81338994" rx="7.85711902" ry="6.81338994"></ellipse>
                <ellipse id="Oval-Copy-25" cx="53.7910456" cy="59.2240818" rx="7.85711902" ry="6.81338994"></ellipse>
                <ellipse id="Oval-Copy-9" cx="53.7910456" cy="24.6330252" rx="7.85711902" ry="6.81338994"></ellipse>
                <ellipse id="Oval-Copy-26" cx="53.7910456" cy="77.043717" rx="7.85711902" ry="6.81338994"></ellipse>
                <ellipse id="Oval-Copy-14" cx="53.7910456" cy="41.4044465" rx="7.85711902" ry="6.81338994"></ellipse>
                <ellipse id="Oval-Copy-4" cx="76.7580088" cy="6.81338994" rx="7.85711902" ry="6.81338994"></ellipse>
                <ellipse id="Oval-Copy-28" cx="76.7580088" cy="59.2240818" rx="7.85711902" ry="6.81338994"></ellipse>
                <ellipse id="Oval-Copy-10" cx="76.7580088" cy="24.6330252" rx="7.85711902" ry="6.81338994"></ellipse>
                <ellipse id="Oval-Copy-29" cx="76.7580088" cy="77.043717" rx="7.85711902" ry="6.81338994"></ellipse>
                <ellipse id="Oval-Copy-15" cx="76.7580088" cy="41.4044465" rx="7.85711902" ry="6.81338994"></ellipse>
                <ellipse id="Oval-Copy-5" cx="99.7249721" cy="6.81338994" rx="7.85711902" ry="6.81338994"></ellipse>
                <ellipse id="Oval-Copy-31" cx="99.7249721" cy="59.2240818" rx="7.85711902" ry="6.81338994"></ellipse>
                <ellipse id="Oval-Copy-11" cx="99.7249721" cy="24.6330252" rx="7.85711902" ry="6.81338994"></ellipse>
                <ellipse id="Oval-Copy-32" cx="99.7249721" cy="77.043717" rx="7.85711902" ry="6.81338994"></ellipse>
                <ellipse id="Oval-Copy-16" cx="99.7249721" cy="41.4044465" rx="7.85711902" ry="6.81338994"></ellipse>
                <ellipse id="Oval-Copy-6" cx="122.691935" cy="6.81338994" rx="7.85711902" ry="6.81338994"></ellipse>
                <ellipse id="Oval-Copy-34" cx="122.691935" cy="59.2240818" rx="7.85711902" ry="6.81338994"></ellipse>
                <ellipse id="Oval-Copy-12" cx="122.691935" cy="24.6330252" rx="7.85711902" ry="6.81338994"></ellipse>
                <ellipse id="Oval-Copy-35" cx="122.691935" cy="77.043717" rx="7.85711902" ry="6.81338994"></ellipse>
                <ellipse id="Oval-Copy-17" cx="122.691935" cy="41.4044465" rx="7.85711902" ry="6.81338994"></ellipse>
            </g>
        </g>
        <circle id="Oval-3-Copy" fill-opacity="0.870000005" fill="url(#radialGradient-1)" cx="556.5" cy="601.5" r="343.5"></circle>
        <path d="M414,133 L557,382" id="Line" stroke="#ECF6FF" stroke-width="16" stroke-linecap="square"></path>
        <path d="M363,29.7843702 C390.755802,13.7595507 426.247007,23.2693906 442.271827,51.0251921 L642.009249,396.980556 L591.752925,425.996058 L363,29.7843702 Z" id="Rectangle-6-Copy" fill="url(#linearGradient-2)"></path>
        <path d="M272.987468,1126.25953 C264.731435,1058.49289 206.995903,1006 137,1006 C96.2904432,1006 59.7280495,1023.75612 34.6349492,1051.94622 C32.9273727,1047.85444 31.3720245,1043.66079 29.9777878,1039.36977 C2.15933198,953.753366 49.0138263,861.796244 134.63023,833.977788 C220.246634,806.159332 312.203756,853.013826 340.022212,938.63023 C363.435098,1010.68768 333.953893,1087.23654 272.987468,1126.25953 Z" id="Combined-Shape" fill-opacity="0.870000005" fill="url(#radialGradient-3)"></path>
        <circle id="Oval-3-Copy" fill-opacity="0.870000005" fill="url(#radialGradient-4)" transform="translate(162.940597, 291.940597) rotate(-182.000000) translate(-162.940597, -291.940597) " cx="162.940597" cy="291.940597" r="129.5"></circle>
        <g id="Group-2" transform="translate(108.494694, 184.629737) rotate(-26.000000) translate(-108.494694, -184.629737) translate(92.494694, 78.629737)" stroke-linecap="square" stroke-width="8">
            <path d="M28.8855015,0.508012693 L28.8855015,184.323686" id="Line-Copy" stroke="url(#linearGradient-5)"></path>
            <path d="M2.56760014,14.1218008 L2.56760014,211.185111" id="Line-Copy-2" stroke="url(#linearGradient-6)"></path>
        </g>
        <g id="Group-2" transform="translate(317.848046, 1047.286107) rotate(-26.000000) translate(-317.848046, -1047.286107) translate(301.848046, 941.286107)" stroke-linecap="square" stroke-width="8">
            <path d="M28.8855015,0.508012693 L28.8855015,184.323686" id="Line-Copy" stroke="url(#linearGradient-5)"></path>
            <path d="M2.56760014,14.1218008 L2.56760014,211.185111" id="Line-Copy-2" stroke="url(#linearGradient-6)"></path>
        </g>
        <path d="M503,707 L503,707 C549.391919,707 587,744.608081 587,791 L587,1184 L503,1184 L503,707 Z" id="Rectangle-6" fill="url(#linearGradient-7)"></path>
        <path d="M85,584 L85,1061 L1,1061 L1,668 C1,621.608081 38.608081,584 85,584 Z" id="Rectangle-6-Copy" fill="url(#linearGradient-8)" transform="translate(43.000000, 822.500000) rotate(-180.000000) translate(-43.000000, -822.500000) "></path>
        <polygon id="Rectangle-7" fill="url(#linearGradient-9)" points="111 517.590643 289 433 289 611.409357 111 696"></polygon>
    </g>
</svg>